<svg width="32" height="30" viewBox="0 0 32 30" fill="none" xmlns="http://www.w3.org/2000/svg">
<path fill-rule="evenodd" clip-rule="evenodd" d="M11.7983 23.0864C8.01618 20.2676 2.85132 15.6114 2.85132 11.2089C2.85132 3.85387 9.91944 1.10762 15.7024 6.78762C21.4854 1.10762 28.5536 3.85387 28.5536 11.2089C28.5536 15.6114 23.3874 20.2676 19.6066 23.0864C17.8948 24.3614 17.039 25.0001 15.7024 25.0001C14.3659 25.0001 13.51 24.3626 11.7983 23.0864ZM21.4854 7.81262C21.7411 7.81262 21.9862 7.91139 22.167 8.08721C22.3477 8.26302 22.4493 8.50148 22.4493 8.75012V10.3126H24.0557C24.3113 10.3126 24.5565 10.4114 24.7372 10.5872C24.918 10.763 25.0195 11.0015 25.0195 11.2501C25.0195 11.4988 24.918 11.7372 24.7372 11.913C24.5565 12.0889 24.3113 12.1876 24.0557 12.1876H22.4493V13.7501C22.4493 13.9988 22.3477 14.2372 22.167 14.413C21.9862 14.5888 21.7411 14.6876 21.4854 14.6876C21.2298 14.6876 20.9847 14.5888 20.8039 14.413C20.6232 14.2372 20.5216 13.9988 20.5216 13.7501V12.1876H18.9152C18.6596 12.1876 18.4144 12.0889 18.2337 11.913C18.0529 11.7372 17.9514 11.4988 17.9514 11.2501C17.9514 11.0015 18.0529 10.763 18.2337 10.5872C18.4144 10.4114 18.6596 10.3126 18.9152 10.3126H20.5216V8.75012C20.5216 8.50148 20.6232 8.26302 20.8039 8.08721C20.9847 7.91139 21.2298 7.81262 21.4854 7.81262Z" fill="#3299B0"/>
</svg>
